PathFileType	4	(X/Y/Z)	C:\Users\ebm\Documents\Erivelton\Erivelton2\wc2.trc
DataRate	CameraRate	NumFrames	NumMarkers	Units	OrigDataRate	OrigDataStartFrame	OrigNumFrames
150.00	150.00	      8	28	mm	150.00	869	      1389
Frame#	Time	IJ			PX			C7			T8			RAC			RAS			RPS			RAI			RPI			RLE			RME			RRS			RUS			R3M			R5M			LAC			LAS			LPS			LAI			LPI			LLE			LME			LRS			LUS			L3M			L5M			RW			LW			V_mid_elbow_r			V_mid_elbow_l			V_mid_wrist_r			V_mid_wrist_l			V_mid_trunk_low			V_mid_trunk_upp			
		X1	Y1	Z1	X2	Y2	Z2	X3	Y3	Z3	X4	Y4	Z4	X5	Y5	Z5	X6	Y6	Z6	X7	Y7	Z7	X8	Y8	Z8	X9	Y9	Z9	X10	Y10	Z10	X11	Y11	Z11	X12	Y12	Z12	X13	Y13	Z13	X14	Y14	Z14	X15	Y15	Z15	X16	Y16	Z16	X17	Y17	Z17	X18	Y18	Z18	X19	Y19	Z19	X20	Y20	Z20	X21	Y21	Z21	X22	Y22	Z22	X23	Y23	Z23	X24	Y24	Z24	X25	Y25	Z25	X26	Y26	Z26	X27	Y27	Z27	X28	Y28	Z28	

869	5.787	2489.46802	1019.53998	-38.19475	2485.55542	854.96637	-23.52929	2367.51440	1128.77454	-44.97578	2280.69238	988.51697	-34.14785	2419.19336	1069.23022	165.49629	2389.02539	889.95935	247.20021	2343.72607	910.90491	252.34476	2368.43896	820.36938	277.02628	2318.42700	839.99377	282.52713	2313.00098	772.63934	302.76831	2285.37720	749.19543	230.16689	2524.88379	602.05969	255.19812	2487.00146	586.09070	300.96964	2560.72876	529.38824	303.65506	2522.52710	515.09369	312.72604	2407.32373	1060.35730	-227.15338	2372.81079	917.60565	-321.17642	2326.25977	922.76770	-310.67252	2364.01392	846.50702	-359.00351	2310.49243	847.93384	-346.01596	2341.57739	763.71039	-392.47491	2292.65210	741.68048	-335.16025	2537.82178	593.67535	-320.48697	2500.95630	558.81580	-358.67978	2573.50244	510.65088	-360.14899	2529.46021	501.72809	-362.10519	2406.87109	304.86551	287.99643	2412.12793	298.30130	-340.70953	
870	5.793	2496.43774	1019.71277	-38.46431	2492.53027	854.85321	-23.84043	2374.43262	1128.72534	-45.21722	2287.87012	988.46722	-34.60033	2426.74976	1068.66907	165.44534	2399.66528	888.64502	246.64978	2353.99512	908.59698	252.08157	2380.58325	818.51587	276.31714	2330.20142	837.03882	282.00812	2326.20044	769.68079	301.90741	2299.09595	745.82520	229.93887	2539.13379	599.65607	255.60214	2500.70532	583.79254	300.99451	2573.40283	525.52026	303.66760	2534.82690	512.37549	312.88278	2415.18677	1059.83960	-227.63187	2383.33203	915.88147	-321.35248	2336.58203	920.35284	-311.42834	2376.13647	844.17670	-358.69424	2322.44336	844.89148	-346.40125	2354.97119	761.14069	-391.93851	2306.18677	738.78058	-334.83090	2551.58838	590.50623	-320.63025	2514.29370	556.33252	-358.73929	2586.20386	506.65787	-360.05167	2541.99927	498.79926	-362.18442	2414.09692	304.90952	288.02927	2419.50635	298.14154	-340.76019	
871	5.800	2503.43262	1019.89716	-38.75226	2499.93701	855.09235	-24.20979	2381.23218	1128.68420	-45.54646	2294.96753	988.37061	-34.99752	2434.33105	1068.09216	165.18336	2410.40137	887.21143	246.01450	2364.39136	906.22931	251.74834	2392.94922	816.61151	275.42917	2342.21240	834.15991	281.47626	2339.53833	766.62543	300.99869	2312.00098	742.85590	229.01306	2553.22437	597.12634	256.21622	2514.35278	581.31439	301.14337	2586.09399	521.61096	303.83920	2547.20898	509.25916	313.02356	2423.18799	1059.07312	-227.91042	2393.95459	914.05750	-321.36725	2346.96729	917.90381	-312.39407	2388.36914	841.94238	-358.14905	2334.55811	841.85730	-346.60925	2368.45874	758.73694	-391.24716	2319.78223	735.84637	-334.27161	2565.52759	587.25653	-320.88660	2527.68481	553.52942	-358.90219	2598.75635	502.56134	-360.08664	2554.31519	495.68784	-362.25195	2421.36035	304.89346	288.01517	2426.81616	298.01492	-340.77573	
872	5.807	2510.41064	1020.10840	-39.04827	2507.07764	855.29468	-24.62671	2388.02808	1128.63196	-45.84030	2302.02832	988.17633	-35.39294	2441.79736	1067.54102	165.12167	2421.29712	885.81177	245.29018	2374.98022	903.92719	251.42932	2405.39258	814.68939	274.33508	2354.38428	831.22516	280.68048	2353.03003	763.71533	300.00882	2325.37817	739.68353	228.09038	2567.41406	594.14807	256.60913	2528.11255	578.72266	301.30682	2598.67407	517.51971	304.06973	2559.58057	506.11288	312.99353	2430.77930	1058.49194	-228.30528	2404.38794	912.12927	-321.27267	2357.34595	915.33411	-312.75436	2400.60034	839.71027	-357.39240	2346.65234	838.72156	-346.52594	2382.22388	755.91498	-390.21750	2333.57129	732.98456	-333.58337	2579.52466	583.90009	-321.09653	2541.13794	550.58044	-358.96896	2611.18872	498.24921	-360.09378	2566.62915	492.33832	-362.26657	2428.69458	304.84131	287.96527	2434.11670	297.98352	-340.77020	
873	5.813	2517.24707	1020.32153	-39.27049	2514.22510	855.29059	-24.90784	2394.73584	1128.58093	-46.19238	2309.04102	988.02911	-35.75852	2449.25732	1067.00073	164.99379	2432.45703	884.42688	244.21666	2385.75122	901.55273	250.99225	2417.97876	812.87946	273.35587	2366.76807	828.31390	279.84360	2366.69434	760.63397	298.73523	2339.03345	736.67651	227.24443	2581.28320	589.96021	255.94090	2541.88330	576.21454	301.65942	2611.20605	513.20654	304.21024	2571.86890	502.76474	313.02661	2438.56543	1057.97888	-228.74287	2414.86011	909.89471	-320.81772	2367.25464	911.68097	-312.12961	2412.87573	837.40802	-356.59894	2358.84082	835.53815	-346.36496	2396.04590	753.40662	-389.11325	2347.42285	730.11823	-332.74152	2593.49341	580.29669	-321.11874	2554.35400	547.57666	-359.20306	2623.55884	493.75726	-360.00848	2578.89746	488.85529	-362.29346	2435.94434	304.82996	287.99597	2441.41211	297.87469	-340.84973	
874	5.820	2524.09302	1020.55841	-39.55264	2521.06348	855.19763	-24.95022	2401.34814	1128.55103	-46.56512	2315.99854	987.82697	-36.17415	2456.60156	1066.48120	164.81711	2443.52856	882.89532	243.30571	2396.65991	899.18683	250.64160	2430.81079	811.02820	272.08966	2379.47632	825.40112	279.01599	2380.49219	757.82080	297.55124	2352.47900	733.72906	226.42833	2595.48462	586.47986	256.24310	2555.68433	573.26697	301.72906	2623.73193	508.71640	304.42294	2584.12476	499.27310	313.13864	2446.11597	1057.39526	-229.11467	2425.43359	908.15198	-320.86533	2377.70020	908.84076	-312.27155	2425.21069	835.09180	-355.71317	2371.09351	832.30847	-345.95636	2409.99829	750.63867	-387.69257	2361.40552	727.32440	-331.72916	2607.29834	576.51495	-321.23819	2567.68311	544.44708	-359.36267	2635.85938	489.05084	-359.90787	2591.17603	485.27655	-362.29776	2443.41895	304.81311	288.06842	2448.86255	297.68024	-340.83948	
875	5.827	2530.89136	1020.81970	-39.86703	2528.50732	855.52856	-25.13489	2407.97876	1128.52100	-46.98259	2322.94116	987.61359	-36.55703	2463.91138	1065.89929	164.60789	2454.84619	881.50922	242.21271	2407.79541	896.79181	250.10852	2443.86743	809.15564	270.48257	2392.29541	822.56055	278.21448	2394.53149	754.85809	296.10028	2366.70679	731.21906	225.22456	2609.68335	582.94604	256.69205	2569.54980	570.22192	301.80615	2636.26514	504.13443	304.63644	2596.48218	495.72528	313.28540	2453.73364	1056.78760	-229.55371	2436.12500	906.27820	-320.70056	2388.19995	905.98224	-312.42517	2437.53857	832.78717	-354.69290	2383.45166	828.97668	-345.32962	2424.04785	748.03992	-386.00620	2375.17603	724.75354	-330.98053	2621.33789	572.54395	-321.30017	2581.05225	541.14545	-359.31583	2648.09033	484.24591	-359.81073	2603.21997	481.54755	-362.37973	2450.87183	304.85181	288.11649	2456.29639	297.51935	-340.83405	
876	5.833	2537.56079	1021.08795	-40.15763	2535.47095	855.49939	-25.43764	2414.49194	1128.44312	-47.29898	2329.80225	987.36774	-36.97422	2471.08618	1065.31934	164.41338	2466.44019	880.15302	240.69716	2419.03394	894.42944	249.51569	2457.18237	807.36584	268.60269	2405.48608	819.73834	277.30542	2408.83301	752.16785	294.58817	2381.15991	728.41162	223.94597	2624.03491	579.09723	256.82025	2583.36646	567.10193	301.84030	2648.98462	499.06766	303.47797	2608.86084	492.11801	313.21793	2461.22266	1056.11292	-229.98643	2446.69312	904.26166	-320.16766	2398.68823	903.02356	-312.36316	2449.95410	830.43884	-353.51587	2395.88501	825.62164	-344.54007	2438.30005	745.21497	-384.09503	2389.51733	721.42786	-329.33191	2635.30811	568.43738	-321.46365	2594.60010	537.68195	-359.39655	2660.24414	479.31088	-359.70758	2615.40820	477.73795	-362.41122	2458.41724	304.82565	288.05478	2463.67603	297.47534	-340.77457	
